# xmcd
# 
# Track frame offsets:
#     150
#     17111
#     32796
#     49982
#     67148
#     85179
#     101085
#     122167
#     140781
#     157973
#     175418
#     189150
#     207401
#     222297
#     241065
#     257809
#     277257
#     295536
#     311697
#     326486
#     343756
# 
# Disc length: 4771
# 
# Revision: 1
# Processed by: cddbd v1.5.2PL0 Copyright (c) Steve Scherf et al.
# Submitted via: fre:ac v1.0.31
# 
DISCID=4712a115
DTITLE=Petra Durst-Benning - Solang die Welt noch schläft
DYEAR=0
DGENRE=Unbekanntes Genre
TTITLE0=Solang die Welt noch schläft CD 5
TTITLE1=Solang die Welt noch schläft CD 5
TTITLE2=Solang die Welt noch schläft CD 5
TTITLE3=Solang die Welt noch schläft CD 5
TTITLE4=Solang die Welt noch schläft CD 5
TTITLE5=Solang die Welt noch schläft CD 5
TTITLE6=Solang die Welt noch schläft CD 5
TTITLE7=Solang die Welt noch schläft CD 5
TTITLE8=Solang die Welt noch schläft CD 5
TTITLE9=Solang die Welt noch schläft CD 5
TTITLE10=Solang die Welt noch schläft CD 5
TTITLE11=Solang die Welt noch schläft CD 5
TTITLE12=Solang die Welt noch schläft CD 5
TTITLE13=Solang die Welt noch schläft CD 5
TTITLE14=Solang die Welt noch schläft CD 5
TTITLE15=Solang die Welt noch schläft CD 5
TTITLE16=Solang die Welt noch schläft CD 5
TTITLE17=Solang die Welt noch schläft CD 5
TTITLE18=Solang die Welt noch schläft CD 5
TTITLE19=Solang die Welt noch schläft CD 5
TTITLE20=Solang die Welt noch schläft CD 5
EXTD=
EXTT0=
EXTT1=
EXTT2=
EXTT3=
EXTT4=
EXTT5=
EXTT6=
EXTT7=
EXTT8=
EXTT9=
EXTT10=
EXTT11=
EXTT12=
EXTT13=
EXTT14=
EXTT15=
EXTT16=
EXTT17=
EXTT18=
EXTT19=
EXTT20=
PLAYORDER=
